{"glyphs":{"0":{"ha":779,"x_min":0,"x_max":0,"o":"m 389 851 b 708 424 565 851 708 660 b 390 -2 708 189 565 -2 b 71 424 214 -2 71 189 b 390 851 71 660 214 851 m 389 28 b 607 424 548 28 607 206 b 389 821 607 643 548 821 b 172 424 231 821 172 643 b 389 28 172 206 231 28 "},"1":{"ha":317,"x_min":0,"x_max":0,"o":"m 213 75 b 234 -2 213 48 220 22 l 85 -2 b 106 75 99 22 106 48 l 106 750 b 78 819 106 776 96 801 l 213 856 "},"2":{"ha":778,"x_min":0,"x_max":0,"o":"m 180 37 l 699 37 l 699 2 l 75 2 l 75 225 b 391 448 75 356 231 407 b 611 637 593 491 611 549 b 396 825 611 741 554 825 b 180 637 238 825 180 741 l 75 637 b 396 860 75 760 219 860 b 717 637 573 860 717 760 b 399 414 717 500 547 446 b 180 225 221 369 180 321 "},"3":{"ha":778,"x_min":0,"x_max":0,"o":"m 701 632 b 497 426 701 539 616 458 b 701 220 616 394 701 314 b 382 -1 701 98 558 -1 b 64 220 207 -1 64 98 l 165 220 b 382 29 165 115 223 29 b 600 220 541 29 600 115 b 382 411 600 325 541 411 l 382 441 b 600 632 541 441 600 527 b 382 824 600 738 541 824 b 165 632 223 824 165 738 l 64 632 b 382 854 64 755 207 854 b 701 632 558 854 701 755 "},"4":{"ha":792,"x_min":0,"x_max":0,"o":"m 709 850 b 688 774 695 827 688 801 l 688 75 b 709 -1 688 48 695 21 l 561 -1 b 582 75 575 21 582 48 l 582 297 l 46 297 l 46 375 l 608 850 l 709 850 m 582 745 l 152 359 l 126 332 l 582 332 "},"5":{"ha":799,"x_min":0,"x_max":0,"o":"m 615 628 l 615 628 l 595 628 b 615 679 608 642 615 660 l 615 815 l 185 815 l 185 529 l 400 529 b 721 264 577 529 721 410 b 400 -1 721 118 577 -1 b 79 264 223 -1 79 118 l 185 264 b 400 34 185 137 242 34 b 615 264 558 34 615 137 b 400 495 615 391 558 495 l 79 495 l 79 850 l 721 850 l 721 628 "},"6":{"ha":796,"x_min":0,"x_max":0,"o":"m 404 850 b 189 662 246 850 189 766 l 189 415 b 404 473 246 451 321 473 b 725 251 581 473 725 373 l 725 251 b 725 250 725 251 725 250 b 725 250 725 250 725 250 l 725 250 b 404 28 725 128 581 28 b 83 250 227 28 84 128 l 83 250 b 83 250 83 250 83 250 b 83 251 83 250 83 251 l 83 662 b 404 885 83 785 227 885 b 725 662 581 885 725 785 l 620 662 b 404 850 620 766 562 850 m 404 439 b 189 374 318 439 241 413 l 189 251 b 404 62 189 147 246 62 b 619 250 562 62 619 147 b 404 439 619 354 562 439 "},"7":{"ha":779,"x_min":0,"x_max":0,"o":"m 743 855 b 718 786 729 834 721 810 b 410 437 694 612 550 523 b 162 2 246 337 162 224 l 56 2 b 391 467 56 243 226 366 b 614 819 538 557 606 642 l 73 819 l 73 855 "},"8":{"ha":790,"x_min":0,"x_max":0,"o":"m 713 635 b 510 428 713 541 629 460 b 713 221 629 396 713 316 b 395 -1 713 99 570 -1 b 76 221 219 -1 76 99 b 280 428 76 316 161 396 b 76 635 161 460 76 541 b 395 857 76 758 219 857 b 713 635 570 857 713 758 m 613 221 b 395 413 613 327 554 413 b 177 221 236 413 177 327 b 395 29 177 116 236 29 b 613 221 554 29 613 116 m 395 443 b 613 635 554 443 613 529 b 395 827 613 741 554 827 b 177 635 236 827 177 741 b 395 443 177 529 236 443 "},"9":{"ha":796,"x_min":0,"x_max":0,"o":"m 712 638 l 712 638 b 712 638 712 638 712 638 b 712 638 712 638 712 638 l 712 226 b 392 3 712 103 569 3 b 71 226 215 3 71 103 l 176 226 b 392 38 176 122 234 38 b 607 226 549 38 607 122 l 607 473 b 392 415 550 437 475 415 b 71 638 215 415 71 515 l 71 638 b 71 638 71 638 71 638 b 71 638 71 638 71 638 l 71 638 b 392 860 71 761 215 860 b 712 638 568 860 712 761 m 392 450 b 607 638 549 450 607 534 b 392 826 607 741 549 826 b 176 638 234 826 176 741 b 392 450 176 534 234 450 "},"\u0000":{"ha":0,"x_min":0,"x_max":0,"o":""},"\n":{"ha":0,"x_min":0,"x_max":0,"o":""},"\r":{"ha":0,"x_min":0,"x_max":0,"o":""}," ":{"ha":383,"x_min":0,"x_max":0,"o":""},"!":{"ha":307,"x_min":0,"x_max":0,"o":"m 154 160 b 224 89 193 160 224 128 b 154 18 224 50 193 18 b 84 89 115 18 84 50 b 154 160 84 128 115 160 m 206 300 b 229 222 206 272 214 245 l 79 222 l 81 226 b 99 294 93 247 99 270 l 99 799 b 81 868 99 823 93 847 l 79 871 l 229 871 b 206 793 214 848 206 821 "},"\"":{"ha":282,"x_min":0,"x_max":0,"o":"m 49 978 l 132 978 l 44 652 m 277 978 l 190 652 l 194 978 "},"#":{"ha":726,"x_min":0,"x_max":0,"o":"m 524 530 l 453 281 l 600 281 l 600 263 l 447 263 l 379 25 l 362 25 l 428 263 l 223 263 l 156 25 l 138 25 l 205 263 l 49 263 l 49 281 l 209 281 l 281 530 l 126 530 l 126 550 l 286 550 l 353 781 l 371 781 l 305 550 l 509 550 l 577 781 l 595 781 l 529 550 l 677 550 l 677 530 m 505 530 l 300 530 l 229 281 l 433 281 "},"$":{"ha":815,"x_min":0,"x_max":0,"o":"m 417 466 b 744 243 584 425 744 374 b 417 18 744 121 598 22 l 417 -67 l 382 -67 l 382 19 b 71 243 208 28 71 125 l 178 243 b 382 54 178 144 235 63 l 382 437 b 71 657 233 469 71 525 b 382 881 71 775 208 872 l 382 967 l 417 967 l 417 882 b 744 657 598 878 744 779 l 637 657 b 417 846 637 759 576 843 l 417 466 m 382 845 b 178 657 235 837 178 756 b 382 474 178 573 198 516 m 417 54 b 637 243 576 57 637 141 b 417 429 637 336 594 384 l 417 54 "},"%":{"ha":768,"x_min":0,"x_max":0,"o":"m 124 15 l 95 35 l 658 879 l 688 859 m 197 574 b 58 727 120 574 58 643 b 197 881 58 812 120 881 b 335 727 273 881 335 812 b 197 574 335 643 273 574 m 197 869 b 142 727 127 869 142 805 b 197 586 142 649 127 586 b 252 727 266 586 252 649 b 197 869 252 805 266 869 m 570 322 b 708 169 646 322 708 253 b 570 15 708 84 646 15 b 431 169 493 15 431 84 b 570 322 431 253 493 322 m 570 27 b 625 169 640 27 625 91 b 570 310 625 247 640 310 b 515 169 500 310 515 247 b 570 27 515 91 500 27 "},"&":{"ha":1151,"x_min":0,"x_max":0,"o":"m 1121 11 l 999 11 l 762 284 l 602 112 b 372 9 544 47 460 9 b 62 318 201 9 62 148 b 372 627 62 489 201 627 b 545 566 435 627 495 600 b 528 639 535 591 528 617 b 750 861 528 761 628 861 b 905 798 808 861 863 839 l 849 742 b 750 825 830 779 799 825 b 565 639 648 825 565 741 b 626 500 565 596 597 531 b 645 482 633 494 639 488 l 644 482 l 776 352 l 959 549 l 986 524 l 802 326 m 738 312 l 617 453 b 508 546 585 489 549 521 b 372 591 467 571 420 591 b 176 222 190 591 153 412 b 374 45 189 121 272 45 b 575 137 450 46 524 79 "},"'":{"ha":136,"x_min":0,"x_max":0,"o":"m 132 978 l 44 652 l 49 978 "},"(":{"ha":346,"x_min":0,"x_max":0,"o":"m 179 419 b 358 -91 179 198 240 2 l 356 -95 b 75 419 195 -21 75 184 b 356 933 75 655 195 860 l 358 930 b 179 419 240 837 179 641 "},")":{"ha":346,"x_min":0,"x_max":0,"o":"m -10 933 b 271 419 151 860 271 655 b -10 -95 271 184 151 -21 l -12 -91 b 166 419 106 2 166 198 b -12 930 166 641 106 837 l -10 933 "},"*":{"ha":374,"x_min":0,"x_max":0,"o":"m 196 717 l 326 674 l 294 617 l 191 709 l 219 575 l 153 575 l 181 709 l 79 617 l 46 674 l 176 717 l 46 760 l 79 816 l 181 726 l 153 859 l 219 859 l 191 726 l 294 816 l 326 760 "},"+":{"ha":515,"x_min":0,"x_max":0,"o":"m 478 327 l 478 301 l 270 301 l 270 94 l 244 94 l 244 301 l 38 301 l 38 327 l 244 327 l 244 534 l 270 534 l 270 327 "},",":{"ha":215,"x_min":0,"x_max":0,"o":"m 107 160 b 177 90 146 160 177 129 b 37 -140 177 31 95 -76 l 25 -128 b 124 19 61 -80 100 -30 l 107 19 b 37 90 69 19 37 51 b 107 160 37 129 69 160 "},".":{"ha":210,"x_min":0,"x_max":0,"o":"m 105 160 b 175 89 144 160 175 128 b 105 18 175 50 144 18 b 35 89 66 18 35 50 b 105 160 35 128 66 160 "},"/":{"ha":539,"x_min":0,"x_max":0,"o":"m 516 871 l 53 25 l 32 25 l 495 871 "},":":{"ha":242,"x_min":0,"x_max":0,"o":"m 120 401 b 50 472 81 401 50 434 b 120 544 50 511 81 544 b 190 472 159 544 190 511 b 120 401 190 434 159 401 m 120 160 b 190 89 159 160 190 128 b 120 18 190 50 159 18 b 50 89 81 18 50 50 b 120 160 50 128 81 160 "},";":{"ha":243,"x_min":0,"x_max":0,"o":"m 121 397 b 51 469 82 397 51 430 b 121 540 51 507 82 540 b 191 469 160 540 191 507 b 121 397 191 430 160 397 m 121 160 b 191 90 160 160 191 129 b 51 -140 191 31 109 -76 l 39 -128 b 138 19 75 -80 114 -30 l 121 19 b 51 90 82 19 51 51 b 121 160 51 129 82 160 "},"<":{"ha":436,"x_min":0,"x_max":0,"o":"m 393 511 l 127 270 l 393 30 l 393 25 l 38 270 l 393 516 "},">":{"ha":436,"x_min":0,"x_max":0,"o":"m 399 270 l 43 25 l 43 30 l 309 270 l 43 511 l 43 516 "},"?":{"ha":608,"x_min":0,"x_max":0,"o":"m 257 160 b 327 89 295 160 327 128 b 257 18 327 50 295 18 b 186 89 218 18 186 50 b 257 160 186 128 218 160 m 549 634 b 549 629 549 632 549 631 b 549 625 549 628 549 627 l 549 625 b 369 397 545 472 448 430 b 270 304 307 370 270 352 l 243 304 b 358 421 243 372 299 396 b 451 628 434 453 451 490 b 299 849 451 750 421 849 b 146 625 175 849 146 749 l 49 625 b 299 875 49 763 161 875 b 549 634 434 875 544 768 l 549 634 "},"@":{"ha":1068,"x_min":0,"x_max":0,"o":"m 726 336 b 805 245 720 293 748 245 b 898 509 907 245 898 397 b 563 900 898 737 793 900 b 171 431 298 900 171 680 b 551 -4 171 165 319 -4 b 772 129 685 -4 684 42 l 899 126 b 551 -21 817 33 686 -21 b 69 431 286 -21 69 151 b 563 915 69 694 280 915 b 999 509 811 915 999 740 b 755 207 999 354 904 207 b 623 317 675 207 628 258 b 449 213 589 263 525 213 b 296 405 357 213 296 295 b 542 718 296 557 400 718 b 679 606 612 718 666 669 l 782 696 l 797 695 m 664 546 b 572 674 667 613 633 674 b 407 431 465 674 407 532 b 499 258 402 354 414 258 b 635 377 557 258 614 308 "},"A":{"ha":740,"x_min":0,"x_max":0,"o":"m 692 50 b 707 22 695 40 700 31 l 723 0 l 646 0 l 646 0 b 647 71 655 23 655 48 l 529 415 l 282 415 l 163 71 b 165 0 155 48 156 23 l 17 0 l 33 22 b 48 50 40 31 45 40 l 300 781 b 292 856 309 806 306 834 l 448 856 l 447 855 b 440 783 435 833 432 807 l 692 50 m 517 451 l 406 774 l 294 451 "},"B":{"ha":803,"x_min":0,"x_max":0,"o":"m 500 656 b 758 309 655 620 770 477 b 419 0 746 133 594 0 l 74 0 b 95 76 88 23 95 49 l 95 779 b 74 856 95 806 88 833 l 423 856 b 540 756 481 856 533 814 b 500 656 545 716 528 679 m 201 664 l 427 664 b 505 742 470 664 505 699 b 427 821 505 785 470 821 l 201 821 m 427 35 b 653 332 591 35 653 168 b 427 629 653 496 591 629 l 201 629 l 201 35 l 427 35 "},"C":{"ha":833,"x_min":0,"x_max":0,"o":"m 488 841 b 158 438 267 841 158 660 b 488 36 158 217 267 36 b 721 206 624 36 690 103 l 798 129 b 488 0 719 49 609 0 b 50 438 247 0 50 197 b 488 877 50 680 247 877 b 798 748 609 877 719 828 l 721 671 b 488 841 690 774 624 841 "},"D":{"ha":806,"x_min":0,"x_max":0,"o":"m 328 856 b 755 428 564 855 755 663 b 328 0 755 192 564 1 l 328 0 l 74 0 b 95 76 88 23 95 49 l 95 779 b 74 856 95 806 88 833 l 328 856 l 328 856 m 327 35 b 649 428 543 35 649 211 b 327 821 649 644 543 821 l 201 821 l 201 35 l 327 35 "},"E":{"ha":703,"x_min":0,"x_max":0,"o":"m 682 856 l 682 821 l 201 821 l 201 452 l 487 452 l 487 417 l 201 417 l 201 35 l 682 35 l 682 0 l 74 0 b 95 76 88 23 95 50 l 95 780 b 74 856 95 807 88 833 "},"F":{"ha":749,"x_min":0,"x_max":0,"o":"m 741 856 l 741 821 l 201 821 l 201 451 l 488 451 l 488 416 l 201 416 l 201 76 b 222 0 201 49 208 23 l 74 0 b 95 76 88 23 95 49 l 95 779 b 74 856 95 806 88 833 "},"G":{"ha":964,"x_min":0,"x_max":0,"o":"m 488 463 l 927 463 l 927 427 l 926 427 b 488 0 920 191 726 0 b 50 438 247 0 50 197 b 50 439 50 439 50 439 b 50 439 50 439 50 439 b 488 877 50 681 247 877 b 798 749 609 877 719 828 l 721 671 b 544 837 694 759 642 820 b 488 841 526 839 508 841 b 159 439 267 841 159 660 b 159 438 159 439 159 439 b 488 36 159 217 267 36 b 751 176 610 36 697 90 b 818 427 795 244 816 331 l 488 427 "},"H":{"ha":854,"x_min":0,"x_max":0,"o":"m 780 856 b 759 779 766 833 758 806 l 759 70 b 777 5 759 47 765 25 l 780 0 l 631 0 l 634 5 b 653 70 646 25 653 47 l 653 451 b 446 334 595 405 520 369 b 206 84 307 269 226 206 b 222 0 201 55 207 25 l 74 0 l 77 5 b 95 70 89 25 95 47 l 95 779 b 74 856 95 806 88 833 l 222 856 b 201 779 208 833 201 806 l 201 234 b 431 366 264 287 348 327 b 653 647 581 437 653 505 l 653 779 b 631 856 653 806 645 833 l 780 856 "},"I":{"ha":296,"x_min":0,"x_max":0,"o":"m 222 856 b 201 779 208 833 201 806 l 201 76 b 222 0 201 49 208 23 l 222 0 l 74 0 b 95 76 88 23 95 49 l 95 779 b 74 856 95 806 88 833 l 222 856 "},"J":{"ha":294,"x_min":0,"x_max":0,"o":"m 94 779 b 73 856 94 806 87 833 l 221 856 l 221 856 b 200 779 207 833 200 806 l 200 79 b -119 -205 200 -78 37 -205 l -119 -170 b 94 79 18 -170 94 -59 l 94 779 "},"K":{"ha":799,"x_min":0,"x_max":0,"o":"m 758 857 b 451 529 758 695 603 601 l 772 0 l 729 0 l 419 514 b 199 377 334 473 254 433 l 199 77 b 221 0 199 50 207 23 l 72 0 b 93 77 86 23 93 50 l 93 780 b 72 856 93 807 86 833 l 221 856 b 199 780 207 833 199 807 l 199 425 b 430 558 263 479 347 519 b 652 857 580 629 652 715 l 758 857 "},"L":{"ha":747,"x_min":0,"x_max":0,"o":"m 199 35 l 740 35 l 740 0 l 93 0 l 93 0 l 72 0 b 93 77 86 23 93 50 l 93 780 b 72 856 93 807 86 833 l 221 856 b 199 780 207 833 199 807 "},"M":{"ha":1124,"x_min":0,"x_max":0,"o":"m 913 822 l 602 70 b 600 0 593 48 592 23 l 522 0 b 520 70 530 23 530 48 l 210 822 l 200 822 l 200 77 b 221 0 200 50 207 23 l 200 0 l 200 0 l 95 0 l 95 0 l 74 0 b 95 77 88 23 95 50 l 95 780 b 74 857 95 807 88 834 l 95 857 l 95 857 l 233 857 l 233 857 l 261 857 b 262 787 252 834 253 809 l 561 64 l 860 787 b 862 857 869 809 870 834 l 889 857 l 889 857 l 1028 857 l 1028 857 l 1049 857 b 1028 780 1035 834 1028 807 l 1028 77 b 1049 0 1028 50 1035 23 l 1028 0 l 1028 0 l 922 0 l 922 0 l 901 0 b 922 77 915 23 922 50 l 922 822 "},"N":{"ha":817,"x_min":0,"x_max":0,"o":"m 744 856 b 723 780 730 833 723 807 l 723 55 b 733 19 723 42 726 30 l 744 0 l 723 0 l 723 0 l 639 0 l 639 0 l 596 0 b 596 71 609 22 609 49 l 199 749 l 199 77 b 221 0 199 50 207 23 l 221 0 l 72 0 b 93 77 86 23 93 50 l 93 800 b 83 839 93 814 90 827 l 72 856 l 93 856 l 93 856 l 177 856 l 177 856 l 221 856 b 221 781 207 833 208 804 l 617 107 l 617 780 b 596 856 617 807 609 833 l 744 856 "},"O":{"ha":978,"x_min":0,"x_max":0,"o":"m 488 877 b 927 438 730 877 927 680 b 488 0 927 197 730 0 b 50 438 247 0 50 197 b 488 877 50 680 247 877 m 488 36 b 818 438 710 36 818 217 b 488 841 818 660 710 841 b 158 438 267 841 158 660 b 488 36 158 217 267 36 "},"P":{"ha":792,"x_min":0,"x_max":0,"o":"m 531 856 b 757 657 646 856 746 771 b 537 416 769 526 666 416 l 199 416 l 199 77 b 221 0 199 50 207 23 l 221 0 l 72 0 b 93 77 86 23 93 50 l 93 780 b 72 856 93 807 86 833 l 93 856 l 93 856 l 531 856 m 467 451 b 652 636 569 451 652 534 b 467 821 652 738 569 821 l 199 821 l 199 451 l 467 451 "},"Q":{"ha":989,"x_min":0,"x_max":0,"o":"m 927 438 b 793 124 927 315 875 204 b 909 123 823 119 858 123 l 909 15 b 747 85 834 15 785 45 b 488 0 674 32 585 0 b 50 438 247 0 50 197 b 488 877 50 680 247 877 b 927 438 730 877 927 680 m 488 36 b 711 125 584 36 658 70 b 693 149 705 133 699 141 b 481 351 642 216 593 351 l 481 387 b 722 171 611 387 670 239 b 736 154 727 164 732 159 b 818 438 791 227 818 327 b 488 841 818 660 710 841 b 158 438 267 841 158 660 b 488 36 158 217 267 36 "},"R":{"ha":815,"x_min":0,"x_max":0,"o":"m 539 254 b 762 0 643 204 762 129 l 656 0 b 523 222 656 107 628 172 b 316 416 427 269 327 316 l 201 416 l 201 74 b 219 3 201 49 207 25 l 221 1 l 72 1 b 95 78 87 24 95 51 l 95 780 b 72 857 95 807 87 834 l 95 857 l 95 857 l 539 857 b 758 615 667 857 770 746 b 532 416 747 501 647 416 l 352 416 b 539 254 363 338 449 297 m 468 452 b 653 637 570 452 653 535 b 468 822 653 739 570 822 l 201 822 l 201 452 "},"S":{"ha":792,"x_min":0,"x_max":0,"o":"m 396 841 b 163 649 227 841 163 755 b 399 456 163 559 186 500 b 737 228 571 414 737 363 b 396 0 737 102 584 0 b 54 228 207 0 54 102 l 163 228 b 396 36 163 122 227 36 b 629 228 564 36 629 122 b 391 421 629 326 583 374 b 54 649 235 453 54 508 b 396 877 54 775 207 877 b 737 649 584 877 737 775 l 629 649 b 396 841 629 755 564 841 "},"T":{"ha":643,"x_min":0,"x_max":0,"o":"m 7 821 l 7 856 l 636 856 l 636 821 l 374 821 l 374 77 b 395 0 374 50 382 23 l 395 0 l 247 0 b 268 77 261 23 268 50 l 268 821 "},"U":{"ha":1007,"x_min":0,"x_max":0,"o":"m 803 856 l 951 856 l 950 854 b 930 782 937 832 930 807 l 930 428 b 510 0 930 195 742 4 b 74 438 270 -4 74 198 l 74 786 b 58 852 74 809 69 832 l 56 856 l 204 856 b 180 778 189 833 180 806 l 180 428 b 501 36 180 212 285 36 b 824 366 681 35 824 186 l 824 782 b 804 854 824 807 817 832 "},"V":{"ha":724,"x_min":0,"x_max":0,"o":"m 434 71 b 436 0 426 48 427 23 l 295 0 l 296 1 b 297 70 304 23 304 47 l 44 806 b 29 834 40 816 36 825 l 13 856 l 161 856 b 159 785 152 833 151 808 l 400 82 l 668 857 l 705 857 "},"W":{"ha":1353,"x_min":0,"x_max":0,"o":"m 1063 71 b 1064 0 1055 48 1055 23 l 1064 0 l 923 0 l 923 0 b 925 71 932 23 933 48 l 680 784 l 434 71 b 435 1 426 48 427 23 l 435 0 l 294 0 b 296 71 303 23 304 48 l 44 806 b 29 834 40 816 36 825 l 13 856 l 161 856 l 161 856 b 159 785 152 833 151 808 l 400 82 l 643 785 b 641 856 651 808 650 833 l 790 856 l 790 856 b 788 785 780 833 780 808 l 1029 82 l 1296 857 l 1334 857 "},"X":{"ha":796,"x_min":0,"x_max":0,"o":"m 751 41 b 757 31 753 38 755 34 l 772 1 l 624 1 b 616 67 633 23 630 48 l 362 398 b 175 0 239 309 175 193 l 69 0 b 339 428 69 211 198 337 l 43 814 b 34 831 39 819 36 825 l 25 857 l 173 857 b 177 789 161 836 162 809 l 417 476 b 698 858 563 567 698 674 l 733 858 b 439 448 733 656 587 539 l 751 41 "},"Y":{"ha":767,"x_min":0,"x_max":0,"o":"m 439 432 l 439 77 b 462 0 439 50 447 23 l 313 0 l 315 3 b 333 73 327 24 333 48 l 333 422 l 30 818 b 26 824 28 820 27 822 l 6 856 l 154 856 b 165 792 147 834 151 810 l 418 462 l 718 857 l 762 857 "},"Z":{"ha":904,"x_min":0,"x_max":0,"o":"m 883 856 l 883 823 l 877 818 l 146 36 l 866 36 l 866 0 l 21 0 l 21 33 l 27 39 l 758 821 l 35 821 l 35 856 "},"[":{"ha":297,"x_min":0,"x_max":0,"o":"m 252 975 b 204 880 222 953 204 918 l 204 10 b 252 -83 204 -27 222 -62 l 252 -88 l 92 -88 l 92 979 l 252 979 l 252 975 "},"\\":{"ha":539,"x_min":0,"x_max":0,"o":"m 506 25 l 485 25 l 22 871 l 43 871 "},"]":{"ha":297,"x_min":0,"x_max":0,"o":"m 205 979 l 205 -88 l 44 -88 l 44 -83 b 92 10 74 -62 92 -27 l 92 880 b 44 975 92 918 75 953 l 44 979 "},"^":{"ha":436,"x_min":0,"x_max":0,"o":"m 407 691 l 404 687 l 218 789 l 31 687 l 28 691 l 212 871 l 224 871 "},"_":{"ha":683,"x_min":0,"x_max":0,"o":"m 0 -18 l 0 2 l 682 2 l 682 -18 "},"a":{"ha":801,"x_min":0,"x_max":0,"o":"m 382 2 b 88 490 150 2 -28 244 b 229 630 117 551 167 601 b 608 576 374 696 515 662 l 608 604 b 590 679 608 630 602 656 l 714 644 l 714 644 l 714 69 b 730 11 714 49 719 28 l 735 2 l 586 2 l 591 11 b 608 69 602 28 608 49 l 608 91 b 382 2 548 36 469 2 m 170 469 b 382 38 131 251 176 38 b 608 142 473 38 553 78 l 608 525 b 308 620 539 606 427 649 b 170 469 236 602 183 542 "},"b":{"ha":801,"x_min":0,"x_max":0,"o":"m 418 665 b 749 334 600 665 749 516 b 418 2 749 151 600 2 b 192 91 331 2 252 36 l 192 79 b 214 2 192 52 200 26 l 65 2 b 87 79 79 26 87 52 l 87 780 b 65 856 87 807 79 833 l 192 856 l 192 576 b 418 665 252 631 331 665 m 418 38 b 643 334 581 38 643 170 b 418 629 643 497 581 629 b 192 525 327 629 247 589 l 192 142 b 418 38 247 78 327 38 "},"c":{"ha":722,"x_min":0,"x_max":0,"o":"m 385 629 b 157 336 222 631 159 499 b 380 38 156 173 217 39 b 645 197 491 37 593 98 l 676 180 b 380 2 618 69 504 1 b 51 336 197 4 50 154 b 385 664 53 519 203 666 b 679 481 510 663 622 593 l 584 434 b 385 629 534 534 497 628 "},"d":{"ha":801,"x_min":0,"x_max":0,"o":"m 735 856 b 714 780 721 833 714 806 l 714 79 b 735 2 714 52 721 25 l 586 2 b 608 79 600 25 608 52 l 608 91 b 382 2 548 36 469 2 b 54 371 187 2 31 172 b 344 662 70 522 192 644 b 608 575 446 674 540 638 l 608 780 b 586 856 608 806 600 833 l 735 856 m 608 524 b 382 629 553 588 473 629 b 157 333 219 629 157 496 b 382 37 157 170 219 37 b 608 142 473 37 553 78 "},"e":{"ha":760,"x_min":0,"x_max":0,"o":"m 300 49 b 322 42 307 47 315 44 b 324 42 323 42 323 42 b 380 36 341 38 360 36 b 645 195 491 35 593 96 l 676 178 b 382 0 618 68 506 0 l 382 0 b 90 176 256 0 146 72 b 90 177 90 176 90 177 b 76 205 85 186 80 195 b 75 209 76 206 76 208 b 66 235 72 218 68 226 b 64 243 65 238 64 240 b 58 267 62 251 59 259 b 56 278 57 270 57 274 b 53 299 55 285 54 292 b 52 315 53 304 52 310 b 51 331 52 320 51 326 b 51 333 51 332 51 332 b 51 334 51 333 51 334 b 52 341 51 337 52 339 l 52 341 b 382 662 57 519 203 662 b 713 349 559 662 703 523 l 714 349 l 714 313 l 158 313 b 227 98 160 226 181 149 b 227 98 227 98 227 98 b 242 83 232 93 237 88 b 246 80 244 82 245 81 b 260 70 251 77 255 73 b 268 65 262 68 265 67 b 279 59 272 63 275 61 b 293 52 283 56 288 54 b 300 49 296 51 298 50 m 382 627 b 158 349 225 627 162 504 l 607 349 b 382 627 603 504 540 627 "},"f":{"ha":476,"x_min":0,"x_max":0,"o":"m 191 78 b 212 2 191 52 198 25 l 64 2 b 85 79 78 25 85 52 l 85 525 b 452 856 85 708 269 856 l 452 821 b 191 525 288 821 191 688 l 191 351 l 452 351 l 452 315 l 191 315 l 191 78 "},"g":{"ha":758,"x_min":0,"x_max":0,"o":"m 701 -7 b 370 -222 701 -125 553 -222 b 39 -7 187 -222 39 -125 l 145 -7 b 370 -186 145 -106 207 -186 b 595 -7 533 -186 595 -106 b 399 141 595 91 536 115 b 123 306 264 167 123 194 l 125 306 b 39 450 72 344 39 395 b 370 664 39 568 187 664 b 373 664 371 664 372 664 l 373 664 l 701 664 l 701 629 l 552 629 b 701 450 642 590 701 525 b 370 236 701 332 553 236 b 222 259 317 236 267 244 b 406 176 245 213 307 195 b 701 -7 551 149 701 120 m 370 629 b 145 450 207 629 145 549 b 370 271 145 351 207 271 b 595 450 533 271 595 351 b 370 629 595 549 533 629 "},"h":{"ha":822,"x_min":0,"x_max":0,"o":"m 192 524 l 192 79 b 214 2 192 52 200 25 l 65 2 b 87 79 79 25 87 52 l 87 780 b 65 856 87 806 79 833 l 214 856 b 192 780 200 833 192 807 l 192 575 b 447 663 258 636 348 671 b 749 325 619 648 749 498 l 749 79 b 770 2 749 52 756 25 l 770 2 l 622 2 b 643 79 635 25 643 52 l 643 395 b 408 629 643 524 537 633 b 192 524 322 626 245 586 "},"i":{"ha":283,"x_min":0,"x_max":0,"o":"m 67 0 b 88 76 81 23 88 50 l 88 586 b 67 662 88 613 81 639 l 216 662 l 216 662 b 194 586 202 639 194 613 l 194 76 b 216 0 194 50 202 23 l 216 0 l 67 0 m 141 858 b 219 781 184 858 219 824 b 141 703 219 738 184 703 b 64 781 99 703 64 738 b 141 858 64 824 99 858 "},"j":{"ha":279,"x_min":0,"x_max":0,"o":"m 192 23 b -113 -246 192 -125 36 -246 l -113 -211 b 86 23 16 -211 86 -106 l 86 591 b 65 668 86 618 79 645 l 213 668 l 213 668 b 192 591 199 645 192 618 l 192 23 "},"k":{"ha":792,"x_min":0,"x_max":0,"o":"m 68 7 b 87 72 80 27 87 49 l 87 780 b 65 856 87 807 79 833 l 214 856 l 214 856 b 192 780 200 833 192 807 l 192 234 b 423 367 256 288 340 328 b 645 648 573 438 645 505 l 751 648 b 534 382 751 518 651 443 l 748 28 l 718 9 l 502 366 b 438 335 481 356 459 345 b 198 86 299 269 219 207 b 214 2 193 57 199 27 l 65 2 l 68 7 "},"l":{"ha":279,"x_min":0,"x_max":0,"o":"m 69 6 b 86 73 80 26 86 50 l 86 785 b 69 852 86 808 80 832 l 67 856 l 215 856 b 192 779 200 833 192 806 l 192 80 b 215 2 192 52 200 25 l 67 2 l 69 6 "},"m":{"ha":1451,"x_min":0,"x_max":0,"o":"m 785 78 b 806 5 785 53 792 27 l 807 4 l 658 4 l 659 5 b 679 78 672 27 679 53 l 679 360 b 409 630 679 510 558 635 b 194 526 323 627 246 587 l 194 78 b 214 5 194 53 201 27 l 215 4 l 67 4 l 68 5 b 88 78 81 27 88 53 l 88 632 l 67 667 l 215 667 l 194 632 l 194 577 b 419 666 253 632 332 666 b 732 499 542 666 665 599 b 1046 666 800 599 923 666 b 1377 335 1228 666 1377 517 l 1377 76 b 1395 7 1377 52 1383 28 l 1397 4 l 1248 4 b 1271 81 1263 27 1271 54 l 1271 335 b 1049 630 1271 497 1210 629 b 785 362 903 632 785 508 l 785 78 "},"n":{"ha":819,"x_min":0,"x_max":0,"o":"m 215 667 b 194 590 201 644 194 617 l 194 577 b 448 665 259 638 350 673 b 750 327 620 650 750 500 l 750 4 l 644 4 l 644 396 b 409 630 644 526 539 635 b 194 526 323 627 246 587 l 194 80 b 215 4 194 53 201 27 l 67 4 b 88 80 81 27 88 53 l 88 590 b 67 667 88 617 81 644 l 215 667 "},"o":{"ha":763,"x_min":0,"x_max":0,"o":"m 381 663 b 712 332 564 663 712 505 b 381 0 712 158 564 0 b 50 332 198 0 50 158 b 381 663 50 505 198 663 m 381 34 b 606 332 544 34 606 177 b 381 630 606 487 544 630 b 156 332 218 630 156 487 b 381 34 156 176 218 34 "},"p":{"ha":801,"x_min":0,"x_max":0,"o":"m 456 664 b 747 373 608 646 730 524 b 418 4 769 173 613 4 b 192 93 331 4 252 38 l 192 -113 b 214 -189 192 -140 200 -166 l 65 -189 b 87 -113 79 -166 87 -140 l 87 590 b 65 667 87 617 79 644 l 214 667 b 192 590 200 644 192 617 l 192 577 b 456 664 260 640 354 675 m 418 39 b 643 335 581 39 643 172 b 418 630 643 498 581 630 b 192 526 327 630 247 590 l 192 143 b 418 39 247 80 327 39 "},"q":{"ha":801,"x_min":0,"x_max":0,"o":"m 735 667 b 714 590 721 644 714 617 l 714 -113 b 735 -189 714 -140 721 -166 l 735 -189 l 586 -189 b 608 -113 600 -166 608 -140 l 608 93 b 382 4 549 38 469 4 b 54 373 187 4 31 173 b 344 664 70 524 192 646 b 608 577 446 675 540 640 l 608 590 b 586 667 608 617 600 644 l 735 667 m 608 526 b 383 630 553 590 473 630 b 157 335 219 630 157 498 b 383 39 157 172 219 39 b 608 143 473 39 553 80 "},"r":{"ha":507,"x_min":0,"x_max":0,"o":"m 196 479 b 491 662 250 587 362 662 l 491 627 b 196 331 328 627 196 494 l 196 69 b 211 6 196 47 201 25 l 214 0 l 65 0 b 90 78 81 23 90 50 l 90 587 b 68 663 90 614 82 640 l 68 663 l 217 663 b 196 587 203 640 196 614 l 196 479 "},"s":{"ha":774,"x_min":0,"x_max":0,"o":"m 386 629 b 165 480 225 629 165 551 b 389 348 165 401 260 367 b 720 182 557 318 720 281 b 386 0 720 89 573 0 b 53 182 199 0 53 89 l 165 182 b 386 33 165 111 225 33 b 607 182 548 33 607 111 b 383 315 607 255 529 289 b 53 480 220 339 53 378 b 386 662 53 573 199 662 b 720 480 573 662 720 573 l 607 480 b 386 629 607 551 548 629 "},"t":{"ha":475,"x_min":0,"x_max":0,"o":"m 227 269 b 425 35 227 140 296 35 l 425 0 b 121 269 277 0 121 121 l 121 627 l 22 627 l 22 662 l 121 662 l 121 836 l 227 836 l 227 662 l 451 662 l 451 627 l 227 627 l 227 269 "},"u":{"ha":806,"x_min":0,"x_max":0,"o":"m 627 589 b 606 666 627 616 620 643 l 755 666 b 733 589 741 643 733 616 l 733 334 b 390 3 733 147 578 -4 b 71 342 210 10 71 162 l 71 589 b 50 666 71 616 64 643 l 50 666 l 198 666 b 177 589 184 643 177 616 l 177 334 b 399 38 177 172 238 39 b 627 270 526 37 627 143 l 627 589 "},"v":{"ha":586,"x_min":0,"x_max":0,"o":"m 365 73 b 370 5 357 51 359 26 l 371 3 l 223 3 b 231 77 237 25 240 52 l 46 616 b 32 643 43 626 38 635 l 15 666 l 164 666 b 162 594 154 643 154 618 l 333 96 l 524 653 l 558 641 "},"w":{"ha":1099,"x_min":0,"x_max":0,"o":"m 877 75 b 884 4 869 51 872 25 l 884 3 l 736 3 b 744 77 749 25 752 52 l 554 629 l 365 75 b 372 4 357 51 360 25 l 372 3 l 224 3 b 231 77 237 25 240 52 l 46 616 b 32 643 43 626 38 635 l 15 666 l 164 666 b 162 594 154 643 154 618 l 333 96 l 528 665 l 649 665 l 845 96 l 1036 653 l 1070 641 l 877 75 "},"x":{"ha":742,"x_min":0,"x_max":0,"o":"m 706 656 b 388 332 706 494 543 404 l 676 43 b 687 27 680 39 684 33 l 699 1 l 621 1 b 611 64 632 22 628 48 l 358 318 b 151 1 216 251 151 151 l 50 1 b 335 341 50 166 188 271 l 60 617 b 53 626 57 620 55 623 l 32 656 l 110 656 b 125 595 103 635 109 611 l 365 355 b 383 364 371 358 377 361 b 605 656 533 434 605 517 l 706 656 "},"y":{"ha":775,"x_min":0,"x_max":0,"o":"m 315 53 b 629 656 495 163 629 307 l 735 656 b 329 20 735 284 510 129 b 179 -226 205 -55 179 -115 l 73 -226 b 274 28 73 -107 163 -41 b 73 332 156 78 73 195 l 73 580 b 51 656 73 607 65 633 l 200 656 b 179 580 186 633 179 607 l 179 332 b 315 53 179 203 218 93 "},"z":{"ha":739,"x_min":0,"x_max":0,"o":"m 720 654 l 166 27 l 671 27 l 671 -4 l 21 -4 l 575 623 l 45 623 l 45 654 "},"{":{"ha":360,"x_min":0,"x_max":0,"o":"m 400 973 b 268 769 268 973 266 892 l 268 629 b 117 446 269 529 229 470 b 268 263 229 421 269 363 l 268 123 b 400 -82 266 -1 268 -82 l 400 -86 b 158 140 236 -103 158 -36 l 158 287 b 44 446 158 372 124 434 b 158 604 124 459 158 519 l 158 752 b 400 978 158 927 236 995 l 400 973 "},"|":{"ha":203,"x_min":0,"x_max":0,"o":"m 111 871 l 111 -217 l 92 -216 l 92 871 "},"}":{"ha":360,"x_min":0,"x_max":0,"o":"m 202 604 b 315 446 202 519 235 459 b 202 287 235 433 202 372 l 202 140 b -40 -86 202 -36 124 -103 l -40 -82 b 92 123 92 -82 94 -1 l 92 263 b 243 446 90 363 130 421 b 92 629 130 470 90 529 l 92 768 b -40 973 94 892 92 973 l -40 978 b 202 752 124 995 202 927 l 202 604 "}," ":{"ha":383,"x_min":0,"x_max":0,"o":""},"­":{"ha":0,"x_min":0,"x_max":0,"o":""},"΄":{"ha":149,"x_min":0,"x_max":0,"o":"m 33 0 l 38 123 l 120 123 "},"Α":{"ha":733,"x_min":0,"x_max":0,"o":"m 688 50 b 703 23 691 40 696 31 l 719 0 l 642 0 l 642 0 b 644 71 651 23 651 48 l 525 416 l 278 416 l 159 71 b 161 0 151 48 152 23 l 12 0 l 29 23 b 44 50 36 31 41 40 l 296 782 b 288 857 305 807 302 834 l 444 857 l 443 856 b 436 783 431 834 428 807 l 688 50 m 513 451 l 402 775 l 290 451 "},"Β":{"ha":801,"x_min":0,"x_max":0,"o":"m 72 0 b 93 77 86 23 93 50 l 93 780 b 72 857 93 807 86 833 l 422 857 b 538 757 480 857 531 815 b 499 656 543 717 527 680 b 757 309 654 621 769 477 b 417 0 745 134 593 0 l 72 0 m 199 665 l 426 665 b 504 743 469 665 504 700 b 426 821 504 786 469 821 l 199 821 m 199 35 l 426 35 b 652 332 589 35 652 169 b 426 629 652 496 589 629 l 199 629 "},"Γ":{"ha":749,"x_min":0,"x_max":0,"o":"m 72 0 b 93 77 86 23 93 50 l 93 780 b 72 856 93 807 86 833 l 93 856 l 93 857 l 740 857 l 740 821 l 199 821 l 199 77 b 221 0 199 50 207 23 l 72 0 "},"Δ":{"ha":733,"x_min":0,"x_max":0,"o":"m 296 782 b 288 857 305 807 302 834 l 444 857 l 443 856 b 436 783 431 834 428 807 l 679 77 b 719 0 688 49 702 23 l 13 0 l 13 0 b 53 77 30 23 44 49 l 296 782 m 147 35 l 656 35 l 402 775 "},"Ε":{"ha":757,"x_min":0,"x_max":0,"o":"m 72 0 b 93 77 86 23 93 50 l 93 780 b 72 857 93 807 86 833 l 739 857 l 739 821 l 199 821 l 199 452 l 486 452 l 486 417 l 199 417 l 199 35 l 739 35 l 739 0 l 72 0 "},"Ζ":{"ha":906,"x_min":0,"x_max":0,"o":"m 866 0 l 21 0 l 21 33 l 27 38 l 759 821 l 35 821 l 35 856 l 884 856 l 884 823 l 877 818 l 146 36 l 866 36 "},"Η":{"ha":956,"x_min":0,"x_max":0,"o":"m 755 462 b 498 334 686 411 591 372 b 208 87 344 272 237 207 b 228 0 201 57 209 25 l 67 0 l 72 6 b 94 72 86 25 94 48 l 94 776 b 67 857 94 805 85 834 l 228 857 b 200 776 210 834 200 805 l 200 221 b 485 367 275 282 381 325 b 755 647 660 438 755 506 l 755 776 b 727 857 755 805 745 834 l 889 857 b 861 776 871 834 861 805 l 861 72 b 884 6 861 48 869 25 l 889 0 l 727 0 l 732 6 b 755 72 747 25 755 48 "},"Θ":{"ha":957,"x_min":0,"x_max":0,"o":"m 478 -1 b 50 428 242 -1 50 191 b 478 856 50 664 242 856 b 906 428 714 856 906 664 b 478 -1 906 191 714 -1 m 478 35 b 800 410 689 35 795 201 l 156 410 b 478 35 162 201 267 35 m 478 820 b 156 445 268 820 162 654 l 800 445 b 478 820 795 654 689 820 "},"Ι":{"ha":293,"x_min":0,"x_max":0,"o":"m 72 0 b 93 77 86 23 93 50 l 93 780 b 72 856 93 807 86 833 l 221 856 b 199 780 207 833 199 807 l 199 77 b 221 0 199 50 207 23 l 72 0 "},"Κ":{"ha":803,"x_min":0,"x_max":0,"o":"m 759 856 b 453 529 759 694 605 601 l 774 -1 l 732 -1 l 421 514 b 201 377 336 473 255 433 l 201 76 b 222 0 201 49 208 23 l 74 0 b 95 76 88 23 95 49 l 95 780 b 74 856 95 807 88 833 l 222 856 b 201 780 208 833 201 807 l 201 425 b 431 558 264 479 349 519 b 653 856 582 629 653 714 l 759 856 "},"Λ":{"ha":731,"x_min":0,"x_max":0,"o":"m 163 71 b 165 0 155 48 156 23 l 17 0 l 33 22 b 48 50 40 31 45 40 l 301 787 b 300 855 309 809 308 833 l 299 856 l 441 856 b 439 785 431 834 431 808 l 710 -1 l 672 -1 l 405 775 "},"Μ":{"ha":1124,"x_min":0,"x_max":0,"o":"m 913 822 l 602 70 b 600 0 593 48 592 23 l 522 0 b 520 70 530 23 530 48 l 210 822 l 200 822 l 200 77 b 221 0 200 50 207 23 l 200 0 l 200 0 l 95 0 l 95 0 l 74 0 b 95 77 88 23 95 50 l 95 780 b 74 857 95 807 88 834 l 95 857 l 95 857 l 233 857 l 233 857 l 261 857 b 262 787 252 834 253 809 l 561 64 l 860 787 b 862 857 869 809 870 834 l 889 857 l 889 857 l 1028 857 l 1028 857 l 1049 857 b 1028 780 1035 834 1028 807 l 1028 77 b 1049 0 1028 50 1035 23 l 1028 0 l 1028 0 l 922 0 l 922 0 l 901 0 b 922 77 915 23 922 50 l 922 822 "},"Ν":{"ha":817,"x_min":0,"x_max":0,"o":"m 199 77 b 221 0 199 50 207 23 l 221 0 l 72 0 b 93 77 86 23 93 50 l 93 801 b 83 839 93 814 90 828 l 72 857 l 93 857 l 93 857 l 177 857 l 177 857 l 221 857 b 221 782 208 833 208 805 l 617 108 l 617 780 b 596 857 617 807 610 834 l 744 857 l 744 857 b 723 780 730 834 723 807 l 723 55 b 733 19 723 42 726 30 l 744 0 l 723 0 l 723 0 l 639 0 l 639 0 l 596 0 b 596 71 609 22 609 49 l 199 749 l 199 77 "},"Ξ":{"ha":724,"x_min":0,"x_max":0,"o":"m 76 412 l 76 447 l 647 447 l 647 412 m 24 821 b 8 858 20 834 15 846 l 715 858 b 699 821 708 846 703 834 m 699 36 b 715 0 703 23 708 11 l 8 0 b 24 36 15 11 20 23 "},"Ο":{"ha":957,"x_min":0,"x_max":0,"o":"m 478 857 b 906 429 714 857 906 665 b 478 1 906 193 714 1 b 50 429 242 1 50 193 b 478 857 50 665 242 857 m 478 36 b 801 429 695 36 801 212 b 478 822 801 646 695 822 b 156 429 262 822 156 646 b 478 36 156 212 262 36 "},"Π":{"ha":851,"x_min":0,"x_max":0,"o":"m 779 857 b 757 781 765 834 757 808 l 757 77 b 779 1 757 50 765 24 l 630 1 b 651 77 644 24 651 50 l 651 822 l 199 822 l 199 77 b 221 1 199 50 207 24 l 72 1 b 93 77 86 24 93 50 l 93 781 b 72 857 93 808 86 834 l 779 857 "},"Ρ":{"ha":793,"x_min":0,"x_max":0,"o":"m 533 856 b 758 657 647 856 748 771 b 539 415 771 526 668 415 l 201 415 l 201 76 b 222 0 201 49 208 23 l 222 0 l 74 0 b 95 76 88 23 95 49 l 95 779 b 74 856 95 806 88 833 l 95 856 l 95 856 l 533 856 m 468 451 b 653 636 570 451 653 534 b 468 821 653 738 570 821 l 201 821 l 201 451 l 468 451 "},"Σ":{"ha":735,"x_min":0,"x_max":0,"o":"m 715 821 l 120 821 l 542 475 l 542 391 l 118 35 l 715 35 l 715 0 l 107 0 l 107 0 l 29 0 b 59 81 48 23 59 52 l 59 103 l 439 424 l 59 753 l 59 775 b 29 856 59 805 48 834 l 59 856 l 59 857 l 59 856 l 68 856 l 68 857 l 715 857 "},"Τ":{"ha":643,"x_min":0,"x_max":0,"o":"m 7 821 l 7 856 l 636 856 l 636 821 l 374 821 l 374 77 b 396 0 374 50 382 23 l 396 0 l 247 0 b 268 77 261 23 268 50 l 268 821 "},"Υ":{"ha":753,"x_min":0,"x_max":0,"o":"m 439 432 l 439 77 b 462 0 439 50 447 23 l 313 0 l 315 3 b 333 73 327 24 333 48 l 333 422 l 30 818 b 26 824 28 820 27 822 l 6 856 l 154 856 b 165 792 147 834 151 810 l 418 462 l 712 849 l 741 828 l 439 432 "},"Φ":{"ha":932,"x_min":0,"x_max":0,"o":"m 483 738 b 894 428 711 731 894 595 b 483 119 894 262 711 125 l 483 0 l 448 0 l 448 119 b 38 428 220 125 38 262 b 448 738 38 595 220 731 l 448 856 l 483 856 l 483 738 m 143 428 b 448 154 143 281 244 161 l 448 702 b 143 428 244 696 143 575 m 483 154 b 788 428 688 161 788 281 b 483 702 788 575 688 696 l 483 154 "},"Χ":{"ha":797,"x_min":0,"x_max":0,"o":"m 751 40 b 757 30 753 37 756 34 l 772 0 l 624 0 b 616 66 634 22 630 47 l 362 397 b 175 -6 239 309 175 188 l 69 -6 b 340 427 69 205 198 336 l 43 814 b 34 830 39 819 36 824 l 25 856 l 173 856 b 177 789 161 835 162 808 l 417 475 b 698 856 563 566 698 672 l 734 856 b 439 447 734 654 587 538 l 751 40 "},"Ψ":{"ha":986,"x_min":0,"x_max":0,"o":"m 942 856 b 921 780 928 833 921 807 l 921 547 b 512 119 921 317 739 129 l 512 -1 l 476 -1 l 476 119 b 64 547 248 127 64 316 l 64 780 b 43 856 64 807 57 833 l 192 856 b 170 780 178 833 170 807 l 170 547 b 476 154 170 335 271 163 l 476 856 l 512 856 l 512 154 b 815 547 715 164 815 336 l 815 780 b 794 856 815 807 808 833 l 794 856 "},"Ω":{"ha":971,"x_min":0,"x_max":0,"o":"m 913 428 b 655 35 913 253 807 101 l 896 35 l 896 0 l 538 0 l 538 39 b 808 428 719 66 808 230 b 485 821 808 645 702 821 b 163 428 269 821 163 645 b 432 39 163 230 251 66 l 432 0 l 75 0 l 75 35 l 315 35 b 57 428 163 101 57 253 b 485 857 57 664 249 857 b 913 428 721 857 913 664 "},"ά":{"ha":797,"x_min":0,"x_max":0,"o":"m 711 847 l 624 723 l 629 847 m 708 76 b 729 0 708 49 715 23 l 582 0 l 582 1 b 603 88 593 23 603 63 b 380 0 544 34 466 0 b 53 366 186 0 31 168 b 342 654 70 516 192 637 b 603 568 443 666 536 631 l 603 582 b 603 583 603 582 603 583 b 673 658 602 623 632 658 l 729 658 b 708 582 715 635 708 609 m 603 518 b 380 621 549 581 469 621 b 156 328 218 621 156 490 b 380 35 156 166 218 35 b 603 139 469 35 549 75 "},"έ":{"ha":763,"x_min":0,"x_max":0,"o":"m 474 847 l 387 723 l 391 847 m 578 93 b 589 190 603 119 606 159 l 715 190 l 715 173 b 387 0 715 76 571 0 b 58 173 203 0 58 76 b 241 328 58 242 132 300 b 58 484 132 356 58 414 b 387 656 58 580 203 656 b 715 484 571 656 715 581 l 610 484 b 387 621 610 558 545 621 b 163 484 228 621 163 558 b 387 346 163 409 228 346 l 387 311 b 163 173 228 311 163 248 b 387 35 163 98 228 35 b 578 93 483 35 544 58 "},"ή":{"ha":813,"x_min":0,"x_max":0,"o":"m 499 847 l 412 723 l 417 847 m 446 653 b 746 319 617 639 746 490 l 746 -204 l 641 -204 l 641 387 b 407 619 641 516 536 624 b 194 516 322 617 246 577 l 194 74 b 215 -2 194 47 201 21 l 68 -2 b 89 74 82 21 89 47 l 89 580 b 68 656 89 607 82 633 l 215 656 b 194 580 201 633 194 607 l 194 566 b 446 653 259 627 349 662 "},"ί":{"ha":281,"x_min":0,"x_max":0,"o":"m 218 847 l 131 723 l 136 847 m 212 656 b 191 581 199 634 191 607 l 191 76 b 212 0 191 49 199 23 l 155 0 b 86 69 117 0 86 31 l 86 581 b 65 656 86 607 79 634 l 212 656 "},"α":{"ha":792,"x_min":0,"x_max":0,"o":"m 727 676 b 706 600 714 653 706 627 l 706 94 b 727 18 706 67 714 41 l 580 18 l 581 19 b 601 106 592 41 601 81 b 378 18 543 52 464 18 b 52 384 185 18 30 186 b 341 672 69 534 190 655 b 601 586 442 684 534 648 l 601 600 b 601 601 601 600 601 600 b 671 676 601 641 631 676 l 727 676 m 601 536 b 378 639 548 599 468 639 b 155 346 216 639 155 508 b 378 53 155 184 217 53 b 601 156 468 53 548 93 "},"β":{"ha":789,"x_min":0,"x_max":0,"o":"m 519 467 b 743 249 649 437 743 350 b 415 18 743 121 596 18 b 191 80 328 18 250 42 l 191 53 l 212 53 l 212 18 l 65 18 l 65 53 l 86 53 l 86 655 b 384 865 86 770 220 865 b 682 655 549 865 682 770 b 519 467 682 573 616 502 m 191 417 b 384 478 243 451 310 474 l 384 479 b 577 655 529 479 577 558 b 384 830 577 751 529 830 b 191 655 239 830 191 751 m 415 53 b 638 249 576 53 638 141 b 415 444 638 357 576 444 b 191 375 325 444 245 418 l 191 122 b 415 53 245 80 325 53 "},"γ":{"ha":713,"x_min":0,"x_max":0,"o":"m 504 370 b 579 676 579 446 579 537 l 684 676 b 529 346 684 523 605 423 b 387 136 470 285 413 227 l 442 23 l 442 -111 b 463 -186 442 -138 449 -164 l 463 -186 l 316 -186 b 337 -111 330 -164 337 -138 l 337 19 l 33 635 b 28 643 31 638 30 641 l 8 674 l 155 674 b 156 605 145 652 146 627 l 365 180 b 504 370 397 260 451 316 "},"δ":{"ha":756,"x_min":0,"x_max":0,"o":"m 395 599 b 708 346 549 558 708 516 b 380 18 708 165 561 18 b 51 346 199 18 51 165 b 205 624 51 459 111 565 b 51 847 118 665 51 729 l 51 865 l 690 865 l 690 830 l 157 830 b 395 599 167 677 242 639 m 380 53 b 603 346 541 53 603 184 b 386 565 603 489 534 526 b 246 607 339 577 291 590 b 156 346 149 557 156 455 b 380 53 156 184 218 53 "},"ε":{"ha":763,"x_min":0,"x_max":0,"o":"m 715 208 l 715 191 b 387 18 715 94 571 18 b 58 191 203 18 58 94 b 241 346 58 260 132 318 b 58 502 132 374 58 432 b 387 674 58 598 202 674 b 715 502 571 674 715 598 l 610 502 b 387 639 610 576 545 639 b 163 502 228 639 163 576 b 387 364 163 427 228 364 l 387 329 b 163 191 228 329 163 266 b 387 53 163 116 228 53 b 578 111 483 53 544 76 b 589 208 603 137 606 177 "},"ζ":{"ha":557,"x_min":0,"x_max":0,"o":"m 384 -2 b 567 -137 481 -49 558 -86 b 553 -186 569 -154 565 -170 l 428 -186 b 437 -175 431 -183 434 -179 b 439 -85 458 -149 460 -112 b 369 -33 426 -68 404 -51 b 43 284 224 37 43 125 l 43 284 b 43 285 43 285 43 285 b 43 285 43 285 43 285 l 43 285 b 377 598 43 446 213 523 b 525 830 518 663 512 724 l 61 830 l 61 865 l 631 865 l 631 848 b 391 566 631 708 544 636 b 148 285 237 496 148 423 b 384 -2 148 147 248 65 "},"η":{"ha":814,"x_min":0,"x_max":0,"o":"m 639 -186 l 639 405 b 406 637 639 534 535 642 b 193 534 321 635 245 595 l 193 92 b 214 16 193 65 200 39 l 67 16 b 88 92 80 39 88 65 l 88 598 b 67 674 88 625 80 651 l 214 674 b 193 598 200 651 193 625 l 193 584 b 445 671 258 645 347 680 b 744 337 616 657 744 508 l 744 -186 "},"θ":{"ha":768,"x_min":0,"x_max":0,"o":"m 384 865 b 712 441 565 865 712 675 b 384 18 712 208 565 18 b 56 441 203 18 56 208 b 384 865 56 675 203 865 m 384 830 b 161 459 226 830 164 665 l 607 459 b 384 830 603 665 541 830 m 384 53 b 607 424 541 53 604 218 l 161 424 b 384 53 164 218 226 53 "},"ι":{"ha":272,"x_min":0,"x_max":0,"o":"m 82 598 b 61 674 82 625 75 651 l 208 674 b 187 598 194 651 187 625 l 187 94 b 208 18 187 67 194 41 l 151 18 b 82 87 113 18 82 49 "},"κ":{"ha":792,"x_min":0,"x_max":0,"o":"m 67 23 b 85 87 79 42 85 64 l 85 788 b 64 864 85 815 78 841 l 211 864 l 211 864 b 190 788 197 841 190 815 l 190 248 b 418 379 253 301 336 340 b 639 674 568 450 639 533 l 744 674 b 528 394 744 545 645 455 l 759 15 l 717 15 l 497 378 b 433 348 476 368 455 358 b 195 100 296 283 216 220 b 211 17 191 72 196 42 l 64 17 l 67 23 "},"λ":{"ha":726,"x_min":0,"x_max":0,"o":"m 559 17 b 558 84 569 38 569 63 l 350 503 b 211 316 318 424 264 369 b 136 17 136 241 136 154 l 31 17 b 186 340 31 168 109 263 b 328 547 245 399 302 457 l 273 657 l 198 821 b 188 838 196 827 192 832 l 167 864 l 314 864 b 315 796 305 842 305 818 l 378 661 l 682 55 b 686 47 683 52 685 49 l 706 17 l 559 17 "},"μ":{"ha":811,"x_min":0,"x_max":0,"o":"m 638 599 b 617 674 638 625 630 651 l 764 674 b 743 599 750 651 743 625 l 743 348 b 425 17 743 170 602 22 b 191 158 302 14 245 71 l 191 -111 b 212 -186 191 -137 199 -164 l 65 -186 b 86 -111 79 -164 86 -137 l 86 599 b 65 674 86 625 79 651 l 212 674 b 191 599 199 651 191 625 l 191 228 b 417 52 253 117 297 51 b 638 280 540 53 638 157 l 638 599 "},"ν":{"ha":576,"x_min":0,"x_max":0,"o":"m 343 56 l 344 52 l 342 52 l 330 17 l 249 17 l 40 625 b 26 652 37 635 32 644 l 10 675 l 157 675 b 155 604 148 652 147 627 l 325 110 l 519 676 l 556 676 "},"ξ":{"ha":413,"x_min":0,"x_max":0,"o":"m 512 -72 b 633 -139 581 -72 619 -105 b 631 -186 639 -154 638 -171 l 504 -186 b 531 -153 511 -179 522 -165 b 512 -107 541 -138 575 -107 l 389 -107 b 61 145 208 -107 61 6 b 270 379 61 251 148 342 b 61 613 148 416 61 507 b 223 830 61 705 126 786 l 79 830 l 79 865 l 630 865 l 630 830 l 389 830 b 166 613 228 830 166 733 b 389 397 166 494 228 397 l 389 362 b 166 145 228 362 166 264 b 389 -72 166 25 228 -72 l 512 -72 "},"ο":{"ha":757,"x_min":0,"x_max":0,"o":"m 378 675 b 706 347 559 675 706 528 b 378 19 706 166 559 19 b 50 347 197 19 50 166 b 378 675 50 528 197 675 m 378 54 b 601 347 540 54 601 185 b 378 640 601 509 540 640 b 155 347 216 640 155 509 b 378 54 155 185 217 54 "},"π":{"ha":828,"x_min":0,"x_max":0,"o":"m 764 675 b 743 599 750 652 743 626 l 743 95 b 764 19 743 68 750 42 l 617 19 b 638 95 631 42 638 68 l 638 640 l 190 640 l 190 95 b 211 19 190 68 197 42 l 64 19 b 85 95 78 42 85 68 l 85 599 b 64 675 85 626 78 652 l 764 675 "},"ρ":{"ha":778,"x_min":0,"x_max":0,"o":"m 375 674 b 723 298 583 688 753 508 b 458 24 703 161 595 49 b 175 107 349 4 247 40 l 175 -111 b 196 -186 175 -137 182 -164 l 49 -186 b 70 -111 62 -164 70 -137 l 70 337 b 375 674 70 511 201 663 m 398 54 b 621 347 560 54 621 185 b 398 640 621 509 560 640 b 175 347 236 640 175 509 b 398 54 175 185 236 54 "},"ς":{"ha":738,"x_min":0,"x_max":0,"o":"m 428 128 b 696 -35 584 87 696 58 b 369 -214 696 -136 552 -214 l 369 -178 b 589 -35 527 -178 589 -113 b 419 94 589 27 578 52 b 365 108 402 98 384 103 b 43 377 76 181 43 297 b 369 648 43 526 189 648 b 696 377 549 648 696 526 l 589 377 b 369 612 589 507 530 612 b 150 377 209 612 150 507 b 374 142 150 267 170 194 l 369 125 l 374 142 b 428 128 393 137 411 132 "},"σ":{"ha":772,"x_min":0,"x_max":0,"o":"m 378 676 l 727 676 l 727 641 l 523 641 b 706 347 631 588 706 476 b 378 19 706 166 559 19 b 50 347 197 19 50 166 b 378 675 50 528 197 675 m 378 54 b 601 347 540 54 601 185 b 378 640 601 509 540 640 b 155 347 216 640 155 509 b 378 54 155 185 217 54 "},"τ":{"ha":650,"x_min":0,"x_max":0,"o":"m 14 675 l 635 675 l 635 640 l 372 640 l 372 15 l 267 15 l 267 640 l 14 640 "},"υ":{"ha":792,"x_min":0,"x_max":0,"o":"m 597 676 l 744 676 b 723 600 731 653 723 627 l 723 347 b 363 20 723 156 559 2 b 67 357 193 36 67 186 l 67 600 b 46 676 67 627 60 653 l 193 676 l 193 676 b 172 600 179 653 172 627 l 172 347 b 388 54 172 188 232 58 b 618 287 516 51 618 159 l 618 600 b 597 676 618 627 611 653 "},"φ":{"ha":926,"x_min":0,"x_max":0,"o":"m 455 675 b 879 347 689 675 879 528 b 473 19 879 170 698 26 l 473 -186 l 438 -186 l 438 19 b 32 347 212 26 32 170 l 137 347 b 438 54 137 190 232 61 l 438 675 l 455 675 m 473 54 b 774 347 679 61 774 190 b 473 640 774 504 679 633 l 473 54 "},"χ":{"ha":726,"x_min":0,"x_max":0,"o":"m 692 676 b 376 351 692 515 530 422 l 662 64 b 673 48 666 60 670 54 l 684 22 l 607 22 b 598 85 618 43 614 69 l 347 337 b 142 15 206 271 142 164 l 41 15 b 324 360 41 179 178 291 l 51 633 b 44 642 49 636 46 639 l 24 672 l 101 672 b 116 612 94 651 100 628 l 353 374 b 372 382 359 377 366 380 b 591 676 521 451 591 537 l 692 676 "},"ψ":{"ha":790,"x_min":0,"x_max":0,"o":"m 744 676 b 723 600 731 653 723 627 l 723 354 b 413 27 723 179 585 36 l 413 -186 l 378 -186 l 378 27 b 67 354 205 36 67 179 l 67 600 b 46 676 67 627 60 653 l 193 676 b 172 600 179 653 172 627 l 172 354 b 378 62 172 198 229 71 l 378 729 l 413 729 l 413 62 b 618 354 561 71 618 198 l 618 600 b 597 676 618 627 611 653 "},"ω":{"ha":1015,"x_min":0,"x_max":0,"o":"m 725 675 b 960 347 854 675 960 528 b 725 19 960 166 854 19 b 508 162 645 19 560 75 b 290 19 455 75 371 19 b 56 347 161 19 56 166 b 290 675 56 528 161 675 l 290 640 b 161 347 180 640 161 509 b 290 54 161 185 180 54 b 455 347 400 54 455 185 l 560 347 b 725 54 560 185 615 54 b 855 347 835 54 855 185 b 725 640 855 509 835 640 l 725 675 "},"ό":{"ha":760,"x_min":0,"x_max":0,"o":"m 481 846 l 394 722 l 399 846 m 380 656 b 708 328 561 656 708 509 b 380 0 708 147 561 0 b 51 328 199 0 51 147 b 380 656 51 509 199 656 m 380 35 b 603 328 541 35 603 167 b 380 621 603 490 541 621 b 156 328 218 621 156 490 b 380 35 156 167 218 35 "},"ύ":{"ha":803,"x_min":0,"x_max":0,"o":"m 488 846 l 401 722 l 405 846 m 603 657 l 750 657 b 729 582 736 635 729 608 l 729 328 b 369 1 729 137 564 -17 b 72 338 199 17 72 167 l 72 582 b 51 657 72 608 65 635 l 198 657 l 198 657 b 177 582 185 635 177 608 l 177 328 b 394 35 177 169 237 39 b 624 268 521 32 624 140 l 624 582 b 603 657 624 608 617 635 "},"ώ":{"ha":1018,"x_min":0,"x_max":0,"o":"m 726 656 b 961 328 856 656 961 509 b 726 0 961 147 856 0 b 509 143 646 0 562 57 b 292 0 456 57 372 0 b 57 328 162 0 57 147 b 292 656 57 509 162 656 l 292 621 b 162 328 182 621 162 490 b 292 35 162 167 182 35 b 456 328 402 35 456 167 l 561 328 b 726 35 561 167 616 35 b 856 328 836 35 856 167 b 726 621 856 490 836 621 l 726 656 m 609 846 l 522 722 l 527 846 "}}}
